HIERARCHY
ROOT root
{
	OFFSET	0	13.1	24.9
	CHANNELS 6  Xposition Yposition Zposition Xrotation Yrotation Zrotation
	JOINT spine_1
	{
		OFFSET	0	9.99999	0
		CHANNELS 3  Xrotation Yrotation Zrotation
		JOINT spine_2
		{
			OFFSET	0	112	-10
			CHANNELS 3  Xrotation Yrotation Zrotation
			JOINT spine_3
			{
				OFFSET	0	206.5	19.3
				CHANNELS 3  Xrotation Yrotation Zrotation
				JOINT spine_4
				{
					OFFSET	0	110.4	14.6
					CHANNELS 3  Xrotation Yrotation Zrotation
					JOINT neck_1
					{
						OFFSET	0	71.8	-50.3
						CHANNELS 3  Xrotation Yrotation Zrotation
						JOINT neck_2
						{
							OFFSET	0	86.2	-25.8
							CHANNELS 3  Xrotation Yrotation Zrotation
							JOINT head_ee
							{
								OFFSET	0	179.8	-8.7
								CHANNELS 3  Xrotation Yrotation Zrotation
								End Site
								{
									OFFSET	1	0	0
								}
							}
						}
					}
					JOINT left_clavicle
					{
						OFFSET	-43.2	22.4	-70.8
						CHANNELS 3  Xrotation Yrotation Zrotation
						JOINT left_shoulder
						{
							OFFSET	-93.9	-5.79999	48.7
							CHANNELS 3  Xrotation Yrotation Zrotation
							JOINT left_elbow
							{
								OFFSET	-291.4	-30.8	15.2
								CHANNELS 3  Xrotation Yrotation Zrotation
								JOINT left_lowarm_twist
								{
									OFFSET	-110.7	-3.89999	13.6
									CHANNELS 3  Xrotation Yrotation Zrotation
									JOINT left_hand
									{
										OFFSET	-110.7	-3.89999	13.6
										CHANNELS 3  Xrotation Yrotation Zrotation
										JOINT left_ee
										{
											OFFSET	-80.8	-5.10001	12.1
											CHANNELS 3  Xrotation Yrotation Zrotation
											End Site
											{
												OFFSET	1	0	0
											}
										}
									}
								}
							}
						}
					}
					JOINT right_clavicle
					{
						OFFSET	43.2	22.4	-70.8
						CHANNELS 3  Xrotation Yrotation Zrotation
						JOINT right_shoulder
						{
							OFFSET	93.9	-5.79999	48.7
							CHANNELS 3  Xrotation Yrotation Zrotation
							JOINT right_elbow
							{
								OFFSET	291.4	-30.8	15.2
								CHANNELS 3  Xrotation Yrotation Zrotation
								JOINT right_lowarm_twist
								{
									OFFSET	110.7	-3.89999	13.6
									CHANNELS 3  Xrotation Yrotation Zrotation
									JOINT right_hand
									{
										OFFSET	110.7	-3.89999	13.6
										CHANNELS 3  Xrotation Yrotation Zrotation
										JOINT right_ee
										{
											OFFSET	80.8	-5.10001	12.1
											CHANNELS 3  Xrotation Yrotation Zrotation
											End Site
											{
												OFFSET	1	0	0
											}
										}
									}
								}
							}
						}
					}
				}
			}
		}
	}
	JOINT left_hip
	{
		OFFSET	-82.8	-127.5	0.300001
		CHANNELS 3  Xrotation Yrotation Zrotation
		JOINT left_knee
		{
			OFFSET	-28.2	-396.7	2.2
			CHANNELS 3  Xrotation Yrotation Zrotation
			JOINT left_ankle
			{
				OFFSET	-11.7	-411.3	35.4
				CHANNELS 3  Xrotation Yrotation Zrotation
				JOINT left_toes
				{
					OFFSET	0	-60	-88.6
					CHANNELS 3  Xrotation Yrotation Zrotation
					JOINT left_foot_ee
					{
						OFFSET	-22.5	-16.5	-42.2
						CHANNELS 3  Xrotation Yrotation Zrotation
						End Site
						{
							OFFSET	1	0	0
						}
					}
				}
			}
		}
	}
	JOINT right_hip
	{
		OFFSET	82.8	-127.5	0.300001
		CHANNELS 3  Xrotation Yrotation Zrotation
		JOINT right_knee
		{
			OFFSET	28.2	-396.7	2.2
			CHANNELS 3  Xrotation Yrotation Zrotation
			JOINT right_ankle
			{
				OFFSET	11.7	-411.3	35.4
				CHANNELS 3  Xrotation Yrotation Zrotation
				JOINT right_toes
				{
					OFFSET	0	-60	-88.6
					CHANNELS 3  Xrotation Yrotation Zrotation
					JOINT right_foot_ee
					{
						OFFSET	22.5	-16.5	-42.2
						CHANNELS 3  Xrotation Yrotation Zrotation
						End Site
						{
							OFFSET	1	0	0
						}
					}
				}
			}
		}
	}
}
MOTION
Frames: 8
Frame Time: 0.02
2800.94 716.97 -1473.77 -8.67664456774 62.698424505 6.53475995083 2.33029 0.327028 1.05175 2.33087 0.259444 1.07043 2.33569 0.0735443 1.09896 2.33409 0.246171 1.07356 -21.1164 10.1715 0.0588728 -21.7437 19.5845 4.64163 -0.0 0.0 -0.0 -0.0552561 13.8308 1.54013 10.7476 -23.9704 60.0317 2.82943 -54.4833 1.45695 -54.5279 -4.61113 4.89851 0.179625 1.78514 1.94424 -0.0 0.0 -0.0 7.09752 0.966646 -13.7855 -30.4479 8.5155 -66.4675 0.420261 11.7604 -0.043283 60.5889 1.82664 7.16199 -3.32882 -29.1871 6.47838 0.0 0.0 0.0 -16.3304 10.7804 3.73576 2.48101 -0.11009 -0.364751 40.7719 1.14662 -4.93426 -19.4174 0.0 0.0 -0.0 0.0 -0.0 36.1693 6.76443 -3.17058 -2.20998 -0.0846646 -0.328569 -8.22248 18.0433 -1.36879 -27.645 0.0 0.0 0.0 0.0 0.0 
2745.35611821 716.114 -1496.25126965 -11.3876006288 66.6157931879 8.63476950617 2.58481 0.0675431 1.14634 2.58554 -0.00553341 1.14831 2.58527 -0.195946 1.13149 2.58349 -0.0148018 1.14823 -15.1232 11.3234 -3.10777 -15.6149 23.4866 0.986526 -0.0 0.0 -0.0 -0.444398 16.0813 1.1897 3.878 -26.0613 60.6112 2.41773 -50.1321 1.13093 -57.5406 -4.97858 5.01805 -0.225382 4.40461 0.360615 -0.0 0.0 -0.0 7.61559 0.925794 -14.8249 -28.6245 11.6358 -67.0714 0.398451 11.1658 -0.0389485 62.8877 2.03765 7.36777 -3.4296 -28.8925 7.19555 0.0 0.0 0.0 -17.0207 11.0866 3.84819 -1.9529 0.0754692 0.290187 40.2157 2.12563 -4.88225 -18.1743 0.0 0.0 -0.0 0.0 -0.0 34.688 6.62307 -3.03322 -8.17307 -0.249233 -1.2285 -0.468604 11.8032 -0.073169 -27.9762 0.0 0.0 0.0 0.0 0.0 
2745.86293955 716.114 -1497.46583956 -10.8430408133 65.3817094024 8.03870424858 2.58481 0.0675431 1.14634 2.58554 -0.00553341 1.14831 2.58527 -0.195946 1.13149 2.58349 -0.0148018 1.14823 -15.1232 11.3234 -3.10777 -15.6149 23.4866 0.986526 -0.0 0.0 -0.0 -0.444398 16.0813 1.1897 3.878 -26.0613 60.6112 2.41773 -50.1321 1.13093 -57.5406 -4.97858 5.01805 -0.225382 4.40461 0.360615 -0.0 0.0 -0.0 7.61559 0.925794 -14.8249 -28.6245 11.6358 -67.0714 0.398451 11.1658 -0.0389485 62.8877 2.03765 7.36777 -3.4296 -28.8925 7.19555 0.0 0.0 0.0 -17.0207 11.0866 3.84819 -1.9529 0.0754692 0.290187 40.2157 2.12563 -4.88225 -18.1743 0.0 0.0 -0.0 0.0 -0.0 34.688 6.62307 -3.03322 -8.17307 -0.249233 -1.2285 -0.468604 11.8032 -0.073169 -27.9762 0.0 0.0 0.0 0.0 0.0 
2727.45760206 720.12 -1505.49618623 -9.26031141332 65.9473535157 6.21553008811 2.58094 0.219887 1.24834 2.5818 0.140013 1.2598 2.58473 -0.0708923 1.26557 2.58252 0.129854 1.26088 -14.4929 12.4264 -2.94134 -15.0381 25.4924 1.40509 -0.0 0.0 -0.0 -0.476765 15.9948 1.1278 1.5002 -26.4292 60.9433 2.21069 -47.5929 0.974962 -60.6442 -5.36297 5.12078 -0.190178 5.64598 1.11321 -0.0 0.0 -0.0 8.25285 0.845682 -16.1107 -28.2706 12.3883 -67.059 0.374566 10.5118 -0.0344569 65.2133 2.25938 7.56723 -3.73075 -29.1061 8.70031 0.0 0.0 0.0 -16.4145 10.5545 3.11042 -8.08019 0.24739 1.21436 39.1461 -1.14566 -4.81118 -16.9628 0.0 0.0 -0.0 0.0 -0.0 32.9015 6.82935 -2.42427 -7.53504 -0.236113 -1.13147 -0.468464 13.4112 -0.0739411 -35.1413 0.0 0.0 0.0 0.0 0.0 
2727.99801019 720.12 -1506.71965589 -8.92860885467 65.0019215112 5.85094530243 2.58094 0.219887 1.24834 2.5818 0.140013 1.2598 2.58473 -0.0708923 1.26557 2.58252 0.129854 1.26088 -14.4929 12.4264 -2.94134 -15.0381 25.4924 1.40509 -0.0 0.0 -0.0 -0.476765 15.9948 1.1278 1.5002 -26.4292 60.9433 2.21069 -47.5929 0.974962 -60.6442 -5.36297 5.12078 -0.190178 5.64598 1.11321 -0.0 0.0 -0.0 8.25285 0.845682 -16.1107 -28.2706 12.3883 -67.059 0.374566 10.5118 -0.0344569 65.2133 2.25938 7.56723 -3.73075 -29.1061 8.70031 0.0 0.0 0.0 -16.4145 10.5545 3.11042 -8.08019 0.24739 1.21436 39.1461 -1.14566 -4.81118 -16.9628 0.0 0.0 -0.0 0.0 -0.0 32.9015 6.82935 -2.42427 -7.53504 -0.236113 -1.13147 -0.468464 13.4112 -0.0739411 -35.1413 0.0 0.0 0.0 0.0 0.0 
2701.27476208 727.667 -1515.596705 -7.55556639468 65.4120740622 3.94449246155 2.49611 0.240205 1.3539 2.49711 0.153574 1.36644 2.50062 -0.0772243 1.37287 2.49802 0.140544 1.36784 -14.7048 12.7846 -4.08852 -15.3144 26.8567 0.513713 -0.0 0.0 -0.0 -0.811802 18.758 0.973522 -1.58295 -26.4331 61.4624 2.10553 -46.2006 0.898179 -64.9235 -5.90063 5.22789 -0.165724 4.51386 0.799109 -0.0 0.0 -0.0 8.31703 0.774291 -16.2395 -28.4741 14.6351 -66.5727 0.415879 11.6411 -0.0423942 67.7009 2.50536 7.7705 -3.68059 -28.8749 8.56937 0.0 0.0 0.0 -16.2448 11.5358 3.58348 -11.5169 0.30027 1.73898 33.9056 0.141366 -4.31107 -12.9832 0.0 0.0 -0.0 0.0 -0.0 29.5588 6.65289 -2.03425 -8.77967 -0.260703 -1.32087 10.0084 4.23 1.45493 -39.0606 0.0 0.0 0.0 0.0 0.0 
2682.65172622 725.927 -1520.63367022 -7.2938772545 67.1161591279 3.48658953669 2.42602 0.32062 1.47984 2.42721 0.225815 1.49724 2.43298 -0.0296556 1.51388 2.42984 0.209778 1.49957 -13.6978 12.4827 -4.78686 -14.19 26.714 -0.518403 -0.0 0.0 -0.0 -1.31022 18.5459 0.192926 -4.67289 -29.3706 61.764 1.96116 -44.167 0.795751 -65.6977 -5.99864 5.24294 -0.257176 6.03793 0.839293 -0.0 0.0 -0.0 8.57687 0.855414 -16.7688 -27.4801 14.235 -66.223 0.444407 12.4156 -0.0483396 68.0475 2.54033 7.79798 -4.02532 -29.0305 10.3534 0.0 0.0 0.0 -16.5357 10.2154 3.24734 -13.2315 0.314864 2.00164 32.8051 -0.285235 -4.20417 -11.2763 0.0 0.0 -0.0 0.0 -0.0 28.5767 5.88293 -1.41954 -9.44522 -0.272161 -1.42236 15.1715 3.84251 2.15727 -40.1158 0.0 0.0 0.0 0.0 0.0 
2682.89421878 725.927 -1521.24117901 -7.20642699144 66.8239513534 3.39156625467 2.42602 0.32062 1.47984 2.42721 0.225815 1.49724 2.43298 -0.0296556 1.51388 2.42984 0.209778 1.49957 -13.6978 12.4827 -4.78686 -14.19 26.714 -0.518403 -0.0 0.0 -0.0 -1.31022 18.5459 0.192926 -4.67289 -29.3706 61.764 1.96116 -44.167 0.795751 -65.6977 -5.99864 5.24294 -0.257176 6.03793 0.839293 -0.0 0.0 -0.0 8.57687 0.855414 -16.7688 -27.4801 14.235 -66.223 0.444407 12.4156 -0.0483396 68.0475 2.54033 7.79798 -4.02532 -29.0305 10.3534 0.0 0.0 0.0 -16.5357 10.2154 3.24734 -13.2315 0.314864 2.00164 32.8051 -0.285235 -4.20417 -11.2763 0.0 0.0 -0.0 0.0 -0.0 28.5767 5.88293 -1.41954 -9.44522 -0.272161 -1.42236 15.1715 3.84251 2.15727 -40.1158 0.0 0.0 0.0 0.0 0.0 
